<svg width="14" height="14" viewBox="0 0 14 14" fill="none" xmlns="http://www.w3.org/2000/svg">
<path d="M9.15876 10.8898V4.10425C9.15876 3.55196 8.71105 3.10425 8.15876 3.10425H1.70239C1.15011 3.10425 0.702393 3.55196 0.702393 4.10425V10.7299C0.702393 11.2822 1.15011 11.7299 1.70239 11.7299H2.45239" stroke="white" stroke-linecap="round" stroke-linejoin="round"/>
<path d="M13.2976 7.83667H9.16016" stroke="white" stroke-linecap="round" stroke-linejoin="round"/>
<path d="M11.9519 11.5433H12.2966C12.8489 11.5433 13.2966 11.0956 13.2966 10.5433V7.54236L11.9042 4.6915C11.7365 4.34814 11.3878 4.13037 11.0056 4.13037H9.33911" stroke="white" stroke-linecap="round" stroke-linejoin="round"/>
<path d="M3.89795 13.156C4.66894 13.156 5.29395 12.531 5.29395 11.76C5.29395 10.989 4.66894 10.364 3.89795 10.364C3.12696 10.364 2.50195 10.989 2.50195 11.76C2.50195 12.531 3.12696 13.156 3.89795 13.156Z" stroke="white" stroke-linecap="round" stroke-linejoin="round"/>
<path d="M10.235 13.156C11.006 13.156 11.631 12.531 11.631 11.76C11.631 10.989 11.006 10.364 10.235 10.364C9.464 10.364 8.83899 10.989 8.83899 11.76C8.83899 12.531 9.464 13.156 10.235 13.156Z" stroke="white" stroke-linecap="round" stroke-linejoin="round"/>
<path d="M8.57715 11.7297H5.63965" stroke="white" stroke-linecap="round" stroke-linejoin="round"/>
</svg>
